<svg id="api-disabled" xmlns="http://www.w3.org/2000/svg" width="64" height="64" viewBox="0 0 64 64">
  <metadata><?xpacket begin="﻿" id="W5M0MpCehiHzreSzNTczkc9d"?>
<x:xmpmeta xmlns:x="adobe:ns:meta/" x:xmptk="Adobe XMP Core 5.6-c138 79.159824, 2016/09/14-01:09:01        ">
   <rdf:RDF xmlns:rdf="http://www.w3.org/1999/02/22-rdf-syntax-ns#">
      <rdf:Description rdf:about=""/>
   </rdf:RDF>
</x:xmpmeta>
                                                                                                    
                                                                                                    
                                                                                                    
                                                                                                    
                                                                                                    
                                                                                                    
                                                                                                    
                                                                                                    
                                                                                                    
                                                                                                    
                                                                                                    
                                                                                                    
                                                                                                    
                                                                                                    
                                                                                                    
                                                                                                    
                                                                                                    
                                                                                                    
                                                                                                    
                                                                                                    
                           
<?xpacket end="w"?></metadata>
<defs>
    <style>
      .cls-1 {
        fill: #6a6c6f;
      }

      .cls-1, .cls-2 {
        fill-rule: evenodd;
      }

      .cls-2 {
        fill: #e90c0c;
      }
    </style>
  </defs>
  <path id="Kształt_941" data-name="Kształt 941" class="cls-1" d="M6399.8,692a2.018,2.018,0,0,0-1.97,1.593l-0.47,2.344a19.812,19.812,0,0,0-8.16,4.657l-2.19-.75a2.011,2.011,0,0,0-2.35.906l-3.19,5.5a2,2,0,0,0,.41,2.5l1.75,1.562a16.976,16.976,0,0,0,0,9.375l-1.75,1.563a2,2,0,0,0-.41,2.5l3.16,5.5a2.021,2.021,0,0,0,2.38.906l2.19-.75a19.81,19.81,0,0,0,8.16,4.656l0.47,2.344A2.02,2.02,0,0,0,6399.8,738h6.39a2.018,2.018,0,0,0,1.97-1.594l0.47-2.344a19.81,19.81,0,0,0,8.16-4.656l2.19,0.75a2.014,2.014,0,0,0,2.35-.906l3.19-5.5a2.013,2.013,0,0,0-.41-2.5l-1.75-1.563a16.976,16.976,0,0,0,0-9.375l1.75-1.562a2.013,2.013,0,0,0,.41-2.5l-3.16-5.5a2.018,2.018,0,0,0-2.38-.906l-2.19.75a19.812,19.812,0,0,0-8.16-4.657l-0.47-2.344a2.019,2.019,0,0,0-1.97-1.593h-6.39Zm0,2h6.39l0.56,2.812,0.12,0.625,0.6,0.156a17.9,17.9,0,0,1,8.38,4.813l0.44,0.469,0.63-.219,2.69-.906,3.19,5.5-2.16,1.906-0.47.406,0.16,0.594a17.345,17.345,0,0,1,0,9.687l-0.16.594,0.47,0.406,2.16,1.907-3.19,5.5-2.72-.906-0.6-.219-0.44.468a17.887,17.887,0,0,1-8.38,4.813l-0.6.156-0.12.625L6406.19,736h-6.39l-0.56-2.813-0.12-.625-0.6-.156a17.887,17.887,0,0,1-8.38-4.813l-0.44-.468-0.63.219-2.69.906-3.19-5.5,2.16-1.907,0.47-.406-0.16-.594a17.345,17.345,0,0,1,0-9.687l0.16-.594-0.47-.406-2.16-1.906,3.19-5.5,2.72,0.906,0.6,0.219,0.44-.469a17.9,17.9,0,0,1,8.38-4.813l0.6-.156,0.12-.625Zm13.11,13.968a1.065,1.065,0,0,0-.12.032h-0.78a0.829,0.829,0,0,0-.1,0,1,1,0,0,0,.1,2v10a0.829,0.829,0,0,0-.1,0,1,1,0,0,0,.1,2h2a1,1,0,0,0,.03-2h-0.03V710a1,1,0,0,0,.03-2h-0.85A0.986,0.986,0,0,0,6412.91,707.968Zm-18.55.032a1.019,1.019,0,0,0-.85.719l-3.5,11.374a0.829,0.829,0,0,0-.03.313V721a1,1,0,0,0,2,.028v-0.434l0.5-1.594h4.01l0.5,1.594V721a1,1,0,1,0,2,.028v-0.622a0.829,0.829,0,0,0-.03-0.313l-3.51-11.374A0.994,0.994,0,0,0,6394.36,708Zm7.45,0a1,1,0,0,0-.82,1v6.812a0.927,0.927,0,0,0,0,.406V721a1,1,0,0,0,.99,1.014,0.993,0.993,0,0,0,1.01-.986V717H6406a3.019,3.019,0,0,0,3-3v-3a3.019,3.019,0,0,0-3-3h-4.01a0.676,0.676,0,0,0-.09,0A0.676,0.676,0,0,0,6401.81,708Zm1.18,2H6406a0.987,0.987,0,0,1,1,1v3a0.987,0.987,0,0,1-1,1h-3.01v-5Zm-8.51,2.437,1.41,4.563h-2.81Z" transform="translate(-6371 -683)"/>
  <path id="Kształt_942" data-name="Kształt 942" class="cls-2" d="M6403,747a32,32,0,1,1,32-32A32,32,0,0,1,6403,747Zm0-2a29.87,29.87,0,0,0,19.95-7.637l-42.31-42.312A29.963,29.963,0,0,0,6403,745Zm0-60a29.9,29.9,0,0,0-21,8.589L6424.41,736A29.987,29.987,0,0,0,6403,685Z" transform="translate(-6371 -683)"/>
</svg>
